<svg width="62" height="62" viewBox="0 0 62 62" fill="none" xmlns="http://www.w3.org/2000/svg">
<g clip-path="url(#clip0_3539_24194)">
<path d="M43 9H11V41H43V9Z" fill="white"/>
</g>
<path d="M39.8452 33.2009H17.7139" stroke="#009FE3" stroke-width="1.5" stroke-linecap="round" stroke-linejoin="round"/>
<path d="M30.9929 30.2501C32.2152 30.2501 33.2061 29.2592 33.2061 28.0369C33.2061 26.8146 32.2152 25.8238 30.9929 25.8238C29.7706 25.8238 28.7798 26.8146 28.7798 28.0369C28.7798 29.2592 29.7706 30.2501 30.9929 30.2501Z" stroke="#009FE3" stroke-width="1.5" stroke-linecap="round" stroke-linejoin="round"/>
<path d="M26.5664 40.6026C27.7887 40.6026 28.7795 39.6117 28.7795 38.3895C28.7795 37.1672 27.7887 36.1763 26.5664 36.1763C25.3441 36.1763 24.3533 37.1672 24.3533 38.3895C24.3533 39.6117 25.3441 40.6026 26.5664 40.6026Z" stroke="#009FE3" stroke-width="1.5" stroke-linecap="round" stroke-linejoin="round"/>
<path d="M59.7636 2.21735H36.5035C35.2863 2.21735 34.1354 2.70424 33.2723 3.56736L3.57202 33.2677C1.77938 35.0603 1.77938 37.9374 3.57202 39.73L22.2509 58.4089C24.0435 60.2015 26.9206 60.2015 28.7133 58.4089L58.4357 28.6865C59.2988 27.8233 59.7857 26.6725 59.7857 25.4553V2.21735H59.7636Z" stroke="black" stroke-width="1.5" stroke-linecap="round" stroke-linejoin="round"/>
<path d="M46.4849 19.9221C48.9294 19.9221 50.9111 17.9404 50.9111 15.4959C50.9111 13.0513 48.9294 11.0696 46.4849 11.0696C44.0403 11.0696 42.0586 13.0513 42.0586 15.4959C42.0586 17.9404 44.0403 19.9221 46.4849 19.9221Z" stroke="black" stroke-width="1.5" stroke-linecap="round" stroke-linejoin="round"/>
<defs>
<clipPath id="clip0_3539_24194">
<rect width="32" height="32" fill="white" transform="translate(11 9)"/>
</clipPath>
</defs>
</svg>
