<svg width="101" height="51" viewBox="0 0 101 51" fill="none" xmlns="http://www.w3.org/2000/svg">
<path d="M1 47L1 5L14.6295 5C15.1695 7.75156 17.5873 9.83355 20.4816 9.83355C23.3758 9.83355 25.7937 7.75156 26.3325 5L100 5L100 47L26.3325 47C25.7925 44.2484 23.3746 42.1665 20.4816 42.1665C17.5885 42.1665 15.1695 44.2484 14.6295 47L1 47Z" stroke="#424242" stroke-width="1.5" stroke-miterlimit="10"/>
<path d="M20 10L20 42" stroke="#009FE3" stroke-width="1.5" stroke-dasharray="4 4"/>
<path d="M50.6401 15.324H49.5841L47.7361 16.416L48.2401 17.268L49.5841 16.476V24.012H50.6401V15.324ZM52.6433 15.264V20.22H57.5513V15.264H52.6433ZM53.7233 19.332V16.14H56.4833V19.332H53.7233ZM53.8313 24.696H60.9233V23.796H54.9233V21.336H53.8313V24.696ZM59.3753 22.08H60.4793V18.42H61.9913V17.508H60.4793V14.328H59.3753V22.08ZM70.3316 14.328V20.568H68.2196V21.336H70.3316V22.38H71.4236V14.328H70.3316ZM62.6516 19.176L62.7956 20.076C63.6476 20.076 64.6316 20.064 65.6516 20.016V22.02H66.7436V19.956C67.6796 19.896 68.6276 19.8 69.5276 19.656L69.4556 18.864C67.2116 19.152 64.5956 19.176 62.6516 19.176ZM63.4676 16.596C63.4676 17.724 64.5356 18.456 66.0836 18.456C67.6316 18.456 68.6876 17.724 68.6876 16.596C68.6876 15.48 67.6316 14.748 66.0836 14.748C64.5356 14.748 63.4676 15.48 63.4676 16.596ZM64.1156 24.696H71.6756V23.796H65.2076V21.6H64.1156V24.696ZM64.5116 16.596C64.5116 15.96 65.1596 15.552 66.0836 15.552C67.0076 15.552 67.6436 15.96 67.6436 16.596C67.6436 17.244 67.0076 17.64 66.0836 17.64C65.1596 17.64 64.5116 17.244 64.5116 16.596Z" fill="black"/>
<path d="M44.3745 36.175C43.2745 36.175 42.5045 35.383 42.5045 34.217C42.5045 33.062 43.2745 32.259 44.3745 32.259C44.8585 32.259 45.4415 32.501 45.7935 32.864L46.4645 32.226C45.9585 31.709 45.1335 31.357 44.4185 31.357C42.7245 31.357 41.5365 32.534 41.5365 34.217C41.5365 35.9 42.7245 37.088 44.4185 37.088C45.1115 37.088 45.9585 36.736 46.4645 36.219L45.7935 35.581C45.4415 35.933 44.8585 36.175 44.3745 36.175ZM49.8127 36.252C48.7787 36.252 48.0637 35.416 48.0637 34.206C48.0637 33.007 48.7787 32.171 49.8127 32.171C50.8467 32.171 51.5727 33.007 51.5727 34.206C51.5727 35.416 50.8467 36.252 49.8127 36.252ZM47.0957 34.206C47.0957 35.889 48.2177 37.077 49.8127 37.077C51.4187 37.077 52.5407 35.889 52.5407 34.206C52.5407 32.523 51.4187 31.335 49.8127 31.335C48.2177 31.335 47.0957 32.523 47.0957 34.206ZM54.7287 34.635V31.357H53.7607V34.712C53.7607 36.087 54.7287 37.033 56.0927 37.033C56.6867 37.033 57.3687 36.637 57.7317 36.087V37.044H58.6997V31.357H57.7317V34.624C57.7317 35.559 57.0827 36.208 56.1477 36.208C55.3117 36.208 54.7287 35.57 54.7287 34.635ZM62.9688 36.285C62.0008 36.285 61.1758 35.361 61.1758 34.228C61.1758 33.117 62.0008 32.193 62.9688 32.193C64.0248 32.193 64.7508 33.029 64.7508 34.228C64.7508 35.438 64.0248 36.285 62.9688 36.285ZM60.1968 39.53H61.1648V36.01C61.5608 36.725 62.4078 37.11 63.0128 37.11C64.6078 37.11 65.7188 35.922 65.7188 34.228C65.7188 32.545 64.6078 31.368 63.0128 31.368C62.4298 31.368 61.5608 31.698 61.1648 32.457V31.357H60.1968V39.53ZM69.3634 36.252C68.3294 36.252 67.6144 35.416 67.6144 34.206C67.6144 33.007 68.3294 32.171 69.3634 32.171C70.3974 32.171 71.1234 33.007 71.1234 34.206C71.1234 35.416 70.3974 36.252 69.3634 36.252ZM66.6464 34.206C66.6464 35.889 67.7684 37.077 69.3634 37.077C70.9694 37.077 72.0914 35.889 72.0914 34.206C72.0914 32.523 70.9694 31.335 69.3634 31.335C67.7684 31.335 66.6464 32.523 66.6464 34.206ZM77.1641 33.788V37.044H78.1321V33.733C78.1321 32.182 77.0761 31.368 75.8221 31.368C75.2061 31.368 74.5351 31.764 74.1721 32.325V31.357H73.2041V37.044H74.1721V33.788C74.1611 32.93 74.8431 32.204 75.7671 32.204C76.6141 32.204 77.1641 32.842 77.1641 33.788Z" fill="black"/>
</svg>
