<svg width="52" height="50" viewBox="0 0 52 50" fill="none" xmlns="http://www.w3.org/2000/svg">
<path d="M46.8186 20.4669H32.931C32.931 20.4669 31.724 19.8558 32.3835 16.788C32.7693 14.9922 37.05 3.13251 29.3223 1.04989C29.2725 1.03742 29.2228 1.0374 29.173 1.02493C29.1232 1.02493 29.0735 1.01248 29.0237 1.01248C28.9739 1.00001 28.9365 1 28.8867 1C28.837 1 28.7997 1 28.7499 1C28.7001 1 28.6628 1 28.613 1C28.6006 1 28.6005 1 28.5881 1C28.5508 1 28.5134 1.00001 28.4885 1.01248C28.4014 1.02495 28.3144 1.0374 28.2397 1.06234C28.2024 1.07481 28.165 1.08728 28.1277 1.09975C28.0903 1.11222 28.0654 1.12469 28.0281 1.13716C27.9783 1.1621 27.9286 1.18704 27.8912 1.21198C27.8539 1.23692 27.8166 1.2619 27.7917 1.28684C27.7543 1.32425 27.717 1.34918 27.6797 1.38659C27.6673 1.39906 27.6548 1.39905 27.6548 1.41152C27.6424 1.42399 27.6423 1.42401 27.6299 1.43648C27.6174 1.44896 27.605 1.46142 27.5926 1.4739C27.5677 1.51131 27.5304 1.54872 27.5055 1.58613C27.493 1.5986 27.493 1.59859 27.4806 1.61106C27.4557 1.64847 27.4308 1.68588 27.4184 1.72329C27.3935 1.7607 27.3686 1.81059 27.3562 1.848C27.1819 2.20966 27.0948 2.6711 27.0451 3.19487C26.8708 5.11537 27.2691 7.84646 26.2113 9.50508C25.4522 10.6898 23.5358 13.371 21.5199 16.1769C19.616 18.8207 17.6374 21.5768 16.4801 23.2978C15.8579 24.2206 15.4722 24.8441 15.4722 24.9938V47.7031C15.4722 48.4139 16.0446 49 16.7663 49H41.0819C41.5672 49 42.0276 48.9002 42.4632 48.7256C42.5254 48.7007 42.5876 48.6758 42.6374 48.6508C42.8116 48.576 42.9858 48.4762 43.1476 48.3765C43.2596 48.3016 43.3591 48.2268 43.4587 48.152C43.5582 48.0772 43.6577 47.9899 43.7449 47.8901C43.7822 47.8527 43.8071 47.8277 43.8444 47.7903C43.8818 47.7529 43.9067 47.728 43.944 47.6906C44.0311 47.5908 44.1182 47.4786 44.2053 47.3538L44.2799 47.2416C44.3297 47.1668 44.3795 47.092 44.4169 47.0047C44.4915 46.8675 44.5537 46.7179 44.616 46.5682C44.6408 46.5059 44.6657 46.431 44.6906 46.3562C44.7155 46.2689 44.7404 46.1816 44.7653 46.0943C44.7777 46.0444 44.7902 45.9946 44.8026 45.9447C44.8275 45.82 44.8524 45.6828 44.8648 45.5456C44.8648 45.4957 44.8773 45.4458 44.8773 45.396C44.8773 45.3835 44.8773 45.371 44.8773 45.3586C44.8773 45.2962 44.8773 45.2338 44.8773 45.1715C44.8773 45.0966 44.8773 45.0218 44.8648 44.9595C44.8648 44.9345 44.8648 44.9096 44.8648 44.8847C44.8648 44.8223 44.8524 44.7475 44.8399 44.6851C44.8275 44.6103 44.8151 44.5479 44.8026 44.4731C44.8026 44.4357 44.7902 44.4108 44.7777 44.3734C44.7653 44.3484 44.7653 44.3235 44.7653 44.2985C44.7404 44.2112 44.7155 44.1115 44.6906 44.0242C44.6782 43.9743 44.6533 43.9244 44.6409 43.8745C44.5662 43.675 44.4791 43.4755 44.3671 43.2884C44.6035 43.251 44.8275 43.1762 45.0515 43.0889C45.1012 43.0764 45.1386 43.0514 45.1884 43.039C45.3626 42.9641 45.5243 42.8769 45.6861 42.7771C45.7234 42.7522 45.7608 42.7272 45.7981 42.7023C45.8728 42.6524 45.9599 42.59 46.0346 42.5277C46.1092 42.4653 46.1714 42.4154 46.2337 42.3531C46.271 42.3157 46.3083 42.2907 46.3332 42.2533C46.3706 42.2159 46.3955 42.191 46.4328 42.1536C46.6941 41.8792 46.9181 41.555 47.0798 41.2182L47.1172 41.1309C47.1545 41.0312 47.2043 40.9439 47.2292 40.8441C47.254 40.7943 47.2665 40.7444 47.279 40.682C47.2914 40.6321 47.3163 40.5822 47.3287 40.5199C47.3412 40.47 47.3537 40.4326 47.3661 40.3827C47.3785 40.3079 47.3909 40.2455 47.4034 40.1707C47.4158 40.1458 47.4158 40.1083 47.4158 40.0834C47.4283 40.046 47.4283 40.0211 47.4283 39.9837C47.4283 39.9462 47.4408 39.9213 47.4408 39.8839C47.4408 39.834 47.4532 39.7716 47.4532 39.7217C47.4532 39.6594 47.4532 39.6095 47.4532 39.5472C47.4532 39.3975 47.4407 39.2479 47.4283 39.0982C47.4159 39.0483 47.4158 39.0109 47.4034 38.961C47.4034 38.9236 47.3909 38.8987 47.3909 38.8613C47.3785 38.8114 47.3785 38.7615 47.3661 38.7241C47.3537 38.6742 47.3412 38.6243 47.3287 38.5745C47.3163 38.5495 47.3163 38.5246 47.3039 38.4996C47.2541 38.3126 47.1794 38.1255 47.0923 37.9509C47.0798 37.9135 47.055 37.8761 47.0425 37.8387C46.9057 37.5768 46.7439 37.3274 46.5572 37.1029C46.3581 36.866 46.1341 36.654 45.8853 36.4794C46.2959 36.4544 46.6817 36.3671 47.0425 36.2175C47.1296 36.18 47.2168 36.1426 47.3039 36.1052C47.391 36.0678 47.4656 36.0179 47.5527 35.9681C47.59 35.9431 47.6399 35.9182 47.6772 35.8932C47.7145 35.8683 47.7518 35.8433 47.8016 35.8184C47.8763 35.7685 47.9509 35.7062 48.0256 35.6563C48.0629 35.6314 48.1003 35.5939 48.1376 35.569C48.2123 35.5066 48.2745 35.4443 48.3491 35.3819C48.4114 35.3196 48.4736 35.2572 48.5234 35.1948L48.5358 35.1824C48.5856 35.12 48.6478 35.0577 48.6852 34.9953C48.7349 34.9205 48.7847 34.8581 48.8345 34.7833C48.8843 34.7085 48.934 34.6337 48.9713 34.5589C48.9962 34.5214 49.0087 34.484 49.0335 34.4466C49.0584 34.4092 49.0709 34.3593 49.0958 34.3219C49.1331 34.2346 49.1705 34.1473 49.2078 34.06C49.2202 34.0226 49.2327 33.9852 49.2452 33.9478C49.27 33.8729 49.2949 33.7982 49.3198 33.7109C49.3323 33.6734 49.3446 33.636 49.3446 33.5986C49.3944 33.4115 49.4193 33.2245 49.4318 33.0374C49.4318 32.9875 49.4442 32.9377 49.4442 32.8878C49.4442 32.8254 49.4442 32.763 49.4442 32.7007C49.4442 32.6259 49.4442 32.5511 49.4318 32.4887C49.4318 32.4638 49.4318 32.4388 49.4193 32.4139C49.4193 32.4014 49.4193 32.3889 49.4193 32.3765C49.4193 32.3266 49.4069 32.2767 49.4069 32.2268C49.3944 32.1645 49.3945 32.1021 49.382 32.0397C49.3696 31.9524 49.3446 31.8527 49.3322 31.7779C49.2949 31.6282 49.2451 31.4786 49.1953 31.3414C49.1456 31.2042 49.0834 31.067 49.0087 30.9299C48.9465 30.7927 48.8594 30.668 48.7723 30.5433C48.7349 30.4809 48.6851 30.4185 48.6353 30.3687C48.5482 30.244 48.4487 30.1317 48.3367 30.032C48.2371 29.9322 48.1252 29.82 48.0008 29.7327C47.9385 29.6828 47.8887 29.6454 47.8265 29.5955C47.2043 29.159 46.4577 28.8971 45.6488 28.8971H46.7936C47.4034 28.8971 47.9758 28.7724 48.4985 28.5355C48.5482 28.5105 48.5856 28.4981 48.6353 28.4731C48.6602 28.4606 48.6727 28.4482 48.6976 28.4482C48.7101 28.4357 48.7349 28.4357 48.7474 28.4232C48.8469 28.3733 48.934 28.3234 49.0211 28.2611C49.1953 28.1613 49.3571 28.0366 49.5064 27.8995C49.5438 27.8621 49.5811 27.8371 49.6185 27.7997C49.6558 27.7623 49.6931 27.7373 49.7304 27.6999C49.7677 27.6625 49.8051 27.6251 49.83 27.5877C49.8673 27.5503 49.8922 27.5129 49.9296 27.4755C49.9669 27.4381 49.9918 27.4006 50.0167 27.3632C50.0789 27.2884 50.1411 27.2011 50.2033 27.1138C50.2406 27.0639 50.278 27.0016 50.3153 26.9517C50.3278 26.9392 50.3277 26.9267 50.3402 26.9143C50.3775 26.8519 50.4148 26.7895 50.4522 26.7397C50.5766 26.5277 50.6762 26.2907 50.7633 26.0538C50.7757 26.0164 50.7882 25.9665 50.8006 25.9291C50.8131 25.8917 50.8255 25.8543 50.8379 25.8293C50.8504 25.7919 50.8629 25.742 50.8753 25.7046C50.9126 25.5425 50.9499 25.3803 50.9624 25.2182C50.9624 25.1808 50.9624 25.1559 50.9748 25.1185C50.9873 25.0436 50.9873 24.9688 50.9873 24.894C50.9873 24.8192 50.9997 24.7443 50.9997 24.682C51.0246 22.35 49.1456 20.4669 46.8186 20.4669Z" stroke="#363636" stroke-width="2" stroke-miterlimit="10" stroke-linejoin="round"/>
<path d="M10.2334 20.8283H2.49329C1.67199 20.8283 1 21.5017 1 22.3248V47.4908C1 48.3139 1.67199 48.9873 2.49329 48.9873H10.2334C11.0547 48.9873 11.7267 48.3139 11.7267 47.4908V22.3248C11.7267 21.5017 11.0547 20.8283 10.2334 20.8283Z" stroke="#009FE3" stroke-width="2" stroke-miterlimit="10" stroke-linejoin="round"/>
</svg>
