<svg width="15" height="14" viewBox="0 0 15 14" fill="none" xmlns="http://www.w3.org/2000/svg">
<g clip-path="url(#clip0_2897_40237)">
<path d="M14.6602 7C14.6602 3.134 11.5262 0 7.66016 0C3.79416 0 0.660156 3.134 0.660156 7C0.660156 10.4938 3.21994 13.3898 6.56641 13.915V9.02344H4.78906V7H6.56641V5.45781C6.56641 3.70344 7.61148 2.73437 9.21041 2.73437C9.97631 2.73437 10.7773 2.87109 10.7773 2.87109V4.59375H9.89469C9.02516 4.59375 8.75391 5.13338 8.75391 5.68695V7H10.6953L10.385 9.02344H8.75391V13.915C12.1004 13.3898 14.6602 10.494 14.6602 7Z" fill="#1877F2"/>
<path d="M10.385 9.02344L10.6953 7H8.75391V5.68695C8.75391 5.13338 9.02516 4.59375 9.89469 4.59375H10.7773V2.87109C10.7773 2.87109 9.97631 2.73438 9.21041 2.73438C7.61148 2.73438 6.56641 3.70344 6.56641 5.45781V7H4.78906V9.02344H6.56641V13.915C6.92283 13.9709 7.28801 14 7.66016 14C8.0323 14 8.39748 13.9709 8.75391 13.915V9.02344H10.385Z" fill="white"/>
</g>
<defs>
<clipPath id="clip0_2897_40237">
<rect width="14" height="14" fill="white" transform="translate(0.660156)"/>
</clipPath>
</defs>
</svg>
