<svg width="14" height="14" viewBox="0 0 14 14" fill="none" xmlns="http://www.w3.org/2000/svg">
<path d="M11.927 1.19209L6.99952 6.11959L2.07202 1.19209C1.95351 1.08364 1.79772 1.02509 1.63712 1.02865C1.47651 1.03221 1.32347 1.0976 1.20988 1.21119C1.09628 1.32478 1.0309 1.47782 1.02734 1.63843C1.02378 1.79904 1.08232 1.95482 1.19077 2.07334L6.11577 7.00084L1.18952 11.9271C1.12934 11.9844 1.08123 12.0533 1.04802 12.1295C1.01481 12.2057 0.997171 12.2878 0.996142 12.3709C0.995112 12.454 1.01071 12.5365 1.04202 12.6135C1.07334 12.6906 1.11973 12.7605 1.17847 12.8194C1.23722 12.8782 1.30713 12.9247 1.3841 12.9561C1.46108 12.9875 1.54355 13.0033 1.62668 13.0023C1.70982 13.0014 1.79193 12.9839 1.86819 12.9508C1.94446 12.9177 2.01333 12.8697 2.07077 12.8096L6.99952 7.88334L11.927 12.8108C12.0455 12.9193 12.2013 12.9778 12.3619 12.9743C12.5225 12.9707 12.6756 12.9053 12.7892 12.7917C12.9028 12.6781 12.9682 12.5251 12.9717 12.3645C12.9753 12.2039 12.9167 12.0481 12.8083 11.9296L7.88077 7.00209L12.8083 2.07334C12.8685 2.01598 12.9166 1.94717 12.9498 1.87096C12.983 1.79474 13.0006 1.71265 13.0017 1.62952C13.0027 1.54639 12.9871 1.46389 12.9558 1.38688C12.9245 1.30986 12.8781 1.23988 12.8193 1.18105C12.7606 1.12222 12.6907 1.07573 12.6137 1.04431C12.5367 1.01289 12.4542 0.997173 12.3711 0.998084C12.288 0.998996 12.2059 1.01652 12.1296 1.04962C12.0533 1.08272 11.9845 1.13073 11.927 1.19084V1.19209Z" fill="black"/>
</svg>
