<svg width="44" height="26" viewBox="0 0 44 26" fill="none" xmlns="http://www.w3.org/2000/svg">
<rect width="44" height="26" fill="#222222"/>
<g id="pc_&#236;&#163;&#188;&#235;&#172;&#184;&#236;&#132;&#156; &#236;&#158;&#145;&#236;&#132;&#177;">
<path d="M-3026 -2895C-3026 -2896.1 -3025.1 -2897 -3024 -2897H2825C2826.1 -2897 2827 -2896.1 2827 -2895V1277C2827 1278.1 2826.1 1279 2825 1279H-3024C-3025.1 1279 -3026 1278.1 -3026 1277V-2895Z" fill="#404040" fill-opacity="0.1"/>
<g id="&#236;&#163;&#188;&#235;&#172;&#184;&#234;&#178;&#176;&#236;&#160;&#156;_&#235;&#185;&#132;&#237;&#154;&#140;&#236;&#155;&#144;" clip-path="url(#clip0_15_11)">
<rect width="1920" height="3979" transform="translate(-902 -2794)" fill="white"/>
<g id="Frame 313754">
<g id="Frame 313589">
<g id="Frame 313598">
<g id="Frame 313588">
<g id="Frame 313585">
<g id="Frame 313572">
<g id="Frame 14696">
<g id="Frame 19176">
<g id="Tab">
<g id="tab_element">
<rect x="-221.5" y="-10.5" width="559" height="47" fill="white"/>
<g id="icon_pay_method_naverpay 1">
<path id="Vector" fill-rule="evenodd" clip-rule="evenodd" d="M23.462 9.45338V12.8966H25.2503C26.5606 12.8966 27.2157 12.344 27.2157 11.2396V11.0084C27.2157 10.4774 27.0581 10.0855 26.7429 9.83265C26.4278 9.57981 25.9771 9.45338 25.3884 9.45338H23.462ZM22.2155 8.34808H25.4584C25.9692 8.34808 26.4136 8.41491 26.7907 8.54765C27.1679 8.6804 27.4795 8.86461 27.7265 9.1003C27.9744 9.33509 28.1585 9.61593 28.2798 9.94192C28.4011 10.267 28.4622 10.6192 28.4622 10.9948V11.2658C28.4622 11.6423 28.3976 11.9954 28.2674 12.325C28.1373 12.6546 27.9469 12.9436 27.6955 13.1919C27.4441 13.4411 27.1325 13.638 26.7598 13.7834C26.3879 13.9288 25.9541 14.0019 25.4592 14.0019H23.462V17.6122H22.2155V8.34808ZM33.6509 14.4128H31.9255C31.4474 14.4128 31.1048 14.5076 30.8985 14.6954C30.6931 14.8842 30.5904 15.1451 30.5904 15.4793V15.659C30.5904 16.0021 30.7082 16.2504 30.9428 16.404C31.1783 16.5584 31.4598 16.636 31.7874 16.636C32.0884 16.636 32.3513 16.5999 32.5744 16.5268C32.7957 16.4536 33.0002 16.3444 33.1853 16.199C33.3535 16.0698 33.473 15.9226 33.5438 15.7556C33.6146 15.5885 33.6509 15.3727 33.6509 15.1063V14.4128ZM31.6608 17.7142C30.964 17.7142 30.4125 17.5391 30.0053 17.1878C29.598 16.8365 29.3944 16.3534 29.3944 15.7366V15.389C29.3944 14.7903 29.5909 14.3017 29.9858 13.9243C30.3806 13.5477 31.0189 13.359 31.9007 13.359H33.6509V12.9481C33.6509 12.4776 33.5394 12.1281 33.3172 11.9006C33.095 11.6748 32.732 11.561 32.2282 11.561C31.8245 11.561 31.474 11.6243 31.1765 11.7534C30.8782 11.8816 30.5692 12.0532 30.2505 12.2672L29.6458 11.3425C29.9822 11.1023 30.3594 10.8946 30.779 10.7194C31.1995 10.5433 31.6864 10.4557 32.2398 10.4557C32.6266 10.4557 32.979 10.5054 33.2986 10.6029C33.6173 10.7023 33.8917 10.8477 34.1237 11.04C34.3538 11.2332 34.5344 11.4689 34.6646 11.7471C34.7956 12.0252 34.8602 12.3404 34.8602 12.6916V17.6122H33.689V16.7634H33.6766C33.6093 16.8925 33.519 17.0099 33.4057 17.1173C33.2924 17.2248 33.1684 17.316 33.0339 17.3937C32.8488 17.4966 32.6496 17.5752 32.4354 17.6312C32.2212 17.6872 31.9635 17.7142 31.6608 17.7142ZM39.1176 16.199L40.9307 10.584H42.2162L38.6387 20.5154L37.5303 20.1172L38.4244 17.7142L35.9182 10.584H37.2408L39.0672 16.199H39.1176Z" fill="black"/>
<path id="Vector_2" fill-rule="evenodd" clip-rule="evenodd" d="M1.7829 21.0854H17.6749V4.87518H1.7829V21.0854Z" fill="#00C73C"/>
<path id="Vector_3" fill-rule="evenodd" clip-rule="evenodd" d="M10.9927 16.6903L8.42892 12.8497V16.6903H5.75532V9.27014H8.4661L11.0299 13.1107V9.27014H13.7018V16.6903H10.9927Z" fill="white"/>
</g>
<rect x="-221.5" y="-10.5" width="559" height="47" stroke="#E0E0E0"/>
</g>
</g>
</g>
</g>
</g>
</g>
</g>
</g>
</g>
</g>
</g>
<path d="M-3024 -2887H2825V-2907H-3024V-2887ZM2817 -2895V1277H2837V-2895H2817ZM2825 1269H-3024V1289H2825V1269ZM-3016 1277V-2895H-3036V1277H-3016ZM-3024 1269C-3019.58 1269 -3016 1272.58 -3016 1277H-3036C-3036 1283.63 -3030.63 1289 -3024 1289V1269ZM2817 1277C2817 1272.58 2820.58 1269 2825 1269V1289C2831.63 1289 2837 1283.63 2837 1277H2817ZM2825 -2887C2820.58 -2887 2817 -2890.58 2817 -2895H2837C2837 -2901.63 2831.63 -2907 2825 -2907V-2887ZM-3024 -2907C-3030.63 -2907 -3036 -2901.63 -3036 -2895H-3016C-3016 -2890.58 -3019.58 -2887 -3024 -2887V-2907Z" fill="white" fill-opacity="0.5"/>
</g>
<defs>
<clipPath id="clip0_15_11">
<rect width="1920" height="3979" fill="white" transform="translate(-902 -2794)"/>
</clipPath>
</defs>
</svg>
