<svg width="142" height="115" viewBox="0 0 142 115" fill="none" xmlns="http://www.w3.org/2000/svg">
<g clip-path="url(#clip0_22_61281)">
<path d="M135.75 100.2H137.99L135.17 106.56C134.97 107.02 134.84 107.42 134.79 107.6C134.71 107.96 134.87 108.11 135.2 108.11C136.19 108.11 138.23 106.35 138.79 103.68C139.5 100.3 136.81 97.8299 133.27 97.8299C129.28 97.8299 125.51 101.24 124.75 104.9C123.91 108.77 126.58 111.92 130.45 111.92C132.76 111.92 134.77 111.13 136.33 110.29H138.59C136.25 112.83 133.15 114.31 129.33 114.31C124.12 114.31 120.78 110.09 121.9 104.87C122.99 99.6599 128.13 95.4399 133.34 95.4399C138.55 95.4399 142.11 98.4899 141.12 103.15C139.98 108.52 134.86 110.42 133.21 110.42C132.24 110.42 131.71 109.96 131.84 109.07H131.79C130.98 109.78 129.81 110.42 128.46 110.42C126.65 110.42 125.08 108.79 125.66 106.1C126.32 103 129.09 99.8399 132.43 99.8399C133.7 99.8399 134.67 100.35 135.15 101.54L135.76 100.19L135.75 100.2ZM129.95 107.73C131.68 107.73 133.28 105.97 133.59 104.47C133.82 103.4 133.13 102.54 132.09 102.54C130.46 102.54 128.89 104.27 128.58 105.67C128.35 106.79 128.86 107.73 129.95 107.73Z" fill="white"/>
<path d="M141.27 5.93018H133.39C129.04 5.94018 124.92 9.37018 124.19 13.5902L119.78 39.0302L116.63 57.1502C114.89 67.1902 105.06 75.3702 94.71 75.3802C84.37 75.3902 77.37 67.2302 79.11 57.1902L79.79 53.2502C80.32 50.2102 77.98 47.4402 74.9 47.4402H65.05L63.36 57.2102C60.15 75.6802 73.03 90.6902 92.06 90.6702C111.09 90.6502 129.18 75.6102 132.38 57.1402L141.27 5.94018V5.93018Z" fill="white"/>
<path d="M54.5399 1.99635e-05C35.5099 0.02002 17.4199 15.06 14.2099 33.53L6.64986 77.09C5.91986 81.31 8.84986 84.73 13.1999 84.73H21.0799L29.9699 33.52C31.7099 23.48 41.5499 15.3 51.8899 15.29C62.2299 15.28 69.2299 23.44 67.4899 33.48L66.8099 37.42C66.2799 40.46 68.6199 43.23 71.6999 43.23H81.5499L83.2399 33.46C86.4399 14.99 73.5699 -0.01998 54.5399 1.99635e-05Z" fill="white"/>
<path d="M11.38 107.99H11.43L14.77 94.8799H18.3L13.43 114.02H9.03998L7.72998 100.62H7.67998L4.26998 114.02H0.72998L5.59998 94.8799H10.05L11.38 107.99Z" fill="white"/>
<path d="M23.5499 112.33C22.9699 113.04 22.3399 113.55 21.6299 113.86C20.9299 114.16 20.1699 114.32 19.3699 114.32C18.1899 114.32 17.3599 114.01 16.8799 113.4C16.3999 112.78 16.3499 111.75 16.7199 110.3L19.4399 99.6101H23.1399L20.6099 109.55C20.4199 110.3 20.4099 110.82 20.5899 111.12C20.7699 111.42 21.1299 111.56 21.6799 111.56C22.9799 111.56 23.8399 110.77 24.2399 109.17L26.6799 99.6001H30.3799L26.7099 114.02H23.1699L23.5999 112.33H23.5499Z" fill="white"/>
<path d="M33.5899 110.36C33.6299 111.16 34.0499 111.55 34.8499 111.55C35.6499 111.55 36.2999 111.15 36.7499 110.36C37.1899 109.57 37.6199 108.38 38.0199 106.81C38.4199 105.24 38.5999 104.05 38.5599 103.26C38.5199 102.47 38.0899 102.07 37.2699 102.07C36.4499 102.07 35.8399 102.47 35.3999 103.26C34.9599 104.05 34.5299 105.24 34.1299 106.81C33.7299 108.38 33.5499 109.57 33.5899 110.36ZM36.6799 112.49C36.0999 113.17 35.5199 113.64 34.9399 113.91C34.3599 114.18 33.6999 114.31 32.9499 114.31C31.4299 114.31 30.4599 113.73 30.0399 112.57C29.6199 111.41 29.7499 109.49 30.4299 106.81C31.1099 104.13 31.9599 102.2 32.9799 101.01C33.9999 99.8201 35.2699 99.2301 36.7799 99.2301C37.4799 99.2301 38.0299 99.3701 38.4499 99.6601C38.8699 99.9501 39.1999 100.38 39.4499 100.95H39.4999L41.0399 94.8901H44.7399L39.8699 114.03H36.3299L36.7199 112.5H36.6699L36.6799 112.49Z" fill="white"/>
<path d="M51.5699 103.71C51.6199 103.29 51.6199 102.93 51.5699 102.64C51.5099 102.34 51.3799 102.12 51.1799 101.97C50.9799 101.82 50.6899 101.74 50.3099 101.74C49.9299 101.74 49.5999 101.82 49.3199 101.99C49.0399 102.16 48.7899 102.38 48.5699 102.66C48.3599 102.94 48.1799 103.25 48.0299 103.58C47.8799 103.92 47.7599 104.26 47.6799 104.6L47.5399 105.16H51.3199C51.4399 104.61 51.5299 104.12 51.5799 103.7M46.6799 108.51C46.5699 108.94 46.4999 109.35 46.4599 109.76C46.4199 110.16 46.4299 110.52 46.4999 110.83C46.5599 111.14 46.6899 111.39 46.8699 111.58C47.0499 111.77 47.3199 111.86 47.6599 111.86C48.2899 111.86 48.7999 111.64 49.1999 111.19C49.5999 110.74 49.9699 110.06 50.3099 109.15H53.6299C53.1299 110.83 52.3599 112.11 51.3099 112.98C50.2699 113.86 48.8599 114.29 47.0899 114.29C45.7499 114.29 44.7599 114.07 44.1199 113.62C43.4799 113.17 43.0799 112.58 42.9099 111.85C42.7399 111.12 42.7299 110.3 42.8799 109.38C43.0299 108.47 43.2199 107.56 43.4499 106.65C43.6999 105.69 43.9999 104.76 44.3599 103.86C44.7199 102.97 45.1899 102.17 45.7699 101.47C46.3499 100.77 47.0699 100.22 47.9199 99.8099C48.7699 99.3999 49.8299 99.1899 51.0799 99.1899C52.1499 99.1899 52.9899 99.3599 53.5899 99.7099C54.1899 100.06 54.5999 100.55 54.8399 101.18C55.0699 101.81 55.1399 102.58 55.0599 103.48C54.9699 104.38 54.7899 105.39 54.5099 106.5L54.2999 107.33H46.9799L46.6899 108.48L46.6799 108.51Z" fill="white"/>
<path d="M64.7 103.24C65.63 103.24 66.4 103.02 67.01 102.58C67.62 102.14 68.06 101.41 68.32 100.37C68.77 98.5999 68.1 97.7199 66.31 97.7199H64.49L63.09 103.24H64.7ZM68.49 94.8799C70.1 94.8799 71.25 95.2899 71.93 96.0999C72.62 96.9099 72.75 98.1499 72.32 99.8099C71.99 101.1 71.47 102.15 70.74 102.96C70.01 103.77 69.08 104.3 67.93 104.53V104.58C68.84 104.72 69.47 105.04 69.8 105.52C70.12 106 70.2 106.78 70.04 107.85C69.98 108.21 69.91 108.6 69.82 109.02C69.73 109.44 69.63 109.91 69.51 110.43C69.29 111.45 69.14 112.23 69.08 112.76C69.05 113.3 69.19 113.66 69.5 113.86L69.46 114.02H65.28C65.15 113.75 65.1 113.44 65.14 113.1C65.18 112.75 65.23 112.39 65.31 112.01L66.14 108.34C66.29 107.59 66.26 107 66.03 106.57C65.8 106.14 65.28 105.93 64.48 105.93H62.42L60.36 114.02H56.5L61.37 94.8799H68.5H68.49Z" fill="white"/>
<path d="M78.4599 107.28C78.1399 107.4 77.8599 107.48 77.6199 107.53C76.8299 107.69 76.2199 107.96 75.8099 108.33C75.3899 108.7 75.0999 109.21 74.9399 109.86C74.7999 110.41 74.7899 110.89 74.8999 111.28C75.0099 111.67 75.3199 111.87 75.8199 111.87C76.0699 111.87 76.3399 111.83 76.6299 111.75C76.9199 111.67 77.1999 111.54 77.4699 111.36C77.7399 111.18 77.9799 110.95 78.1999 110.66C78.4099 110.38 78.5699 110.03 78.6699 109.64L79.3899 106.8C79.0899 107 78.7799 107.15 78.4699 107.27M73.4399 103.66C73.6499 102.82 73.9699 102.12 74.3799 101.56C74.7899 101 75.2699 100.54 75.8099 100.19C76.3499 99.84 76.9499 99.59 77.6099 99.44C78.2599 99.29 78.9399 99.21 79.6399 99.21C80.7499 99.21 81.6099 99.32 82.2399 99.53C82.8599 99.74 83.3099 100.05 83.5899 100.44C83.8699 100.83 83.9999 101.3 83.9999 101.85C83.9999 102.4 83.9099 102.99 83.7499 103.63L81.8199 111.22C81.6499 111.9 81.5399 112.43 81.5099 112.8C81.4799 113.17 81.4999 113.58 81.5599 114.01H78.0199C77.9499 113.78 77.9199 113.53 77.9299 113.27C77.9299 113.01 77.9399 112.76 77.9499 112.51H77.8999C77.2799 113.26 76.6599 113.75 76.0399 113.97C75.4199 114.19 74.6599 114.3 73.7699 114.3C73.1299 114.3 72.6099 114.19 72.2199 113.97C71.8299 113.75 71.5499 113.44 71.3799 113.05C71.2099 112.66 71.1299 112.22 71.1299 111.72C71.1299 111.23 71.1899 110.74 71.3099 110.26C71.4799 109.58 71.6999 109 71.9699 108.51C72.2399 108.02 72.5599 107.6 72.9499 107.25C73.3299 106.9 73.7799 106.61 74.2999 106.38C74.8099 106.15 75.4199 105.94 76.1099 105.76L78.3399 105.2C78.9299 105.06 79.3599 104.86 79.6399 104.61C79.9199 104.36 80.1199 103.99 80.2399 103.51C80.3799 102.96 80.3599 102.52 80.1799 102.21C79.9999 101.9 79.5999 101.74 78.9699 101.74C78.3999 101.74 77.9299 101.91 77.5499 102.25C77.1799 102.59 76.9199 103.04 76.7699 103.62L76.6699 104.02H73.3499L73.4399 103.67V103.66Z" fill="white"/>
<path d="M92.97 103.75C93.01 103.41 93.01 103.1 92.97 102.83C92.92 102.55 92.82 102.33 92.64 102.16C92.47 101.99 92.2 101.91 91.85 101.91C91.4 101.91 91.01 102.01 90.67 102.22C90.33 102.43 90.04 102.73 89.79 103.13C89.54 103.53 89.32 104.04 89.11 104.66C88.9 105.28 88.69 106 88.47 106.84C88.24 107.73 88.07 108.5 87.97 109.13C87.86 109.76 87.83 110.29 87.87 110.7C87.91 111.11 88.03 111.41 88.24 111.6C88.45 111.79 88.76 111.88 89.17 111.88C89.8 111.88 90.32 111.61 90.74 111.08C91.16 110.54 91.52 109.69 91.82 108.51H95.36C94.88 110.4 94.09 111.85 92.99 112.84C91.89 113.83 90.36 114.33 88.39 114.33C87.46 114.33 86.68 114.22 86.05 113.99C85.42 113.77 84.95 113.37 84.64 112.78C84.33 112.2 84.19 111.42 84.2 110.45C84.21 109.48 84.41 108.27 84.78 106.82C85.16 105.34 85.61 104.11 86.15 103.14C86.68 102.17 87.28 101.39 87.95 100.81C88.62 100.23 89.34 99.8202 90.11 99.5902C90.88 99.3602 91.7 99.2402 92.56 99.2402C94.28 99.2402 95.44 99.7402 96.05 100.74C96.66 101.74 96.75 103.1 96.31 104.81H92.77C92.86 104.45 92.93 104.1 92.97 103.77" fill="white"/>
<path d="M105.35 103.71C105.4 103.29 105.4 102.93 105.35 102.64C105.29 102.34 105.16 102.12 104.96 101.97C104.76 101.82 104.47 101.74 104.09 101.74C103.71 101.74 103.38 101.82 103.1 101.99C102.82 102.16 102.57 102.38 102.35 102.66C102.14 102.94 101.96 103.25 101.81 103.58C101.66 103.92 101.54 104.26 101.46 104.6L101.32 105.16H105.1C105.22 104.61 105.31 104.12 105.36 103.7M100.46 108.51C100.35 108.94 100.28 109.35 100.24 109.76C100.2 110.16 100.21 110.52 100.28 110.83C100.34 111.14 100.47 111.39 100.65 111.58C100.83 111.77 101.1 111.86 101.44 111.86C102.07 111.86 102.58 111.64 102.98 111.19C103.38 110.74 103.75 110.06 104.09 109.15H107.41C106.91 110.83 106.14 112.11 105.09 112.98C104.05 113.86 102.64 114.29 100.87 114.29C99.5299 114.29 98.5399 114.07 97.8999 113.62C97.2599 113.17 96.8599 112.58 96.6899 111.85C96.5199 111.12 96.5099 110.3 96.6599 109.38C96.8099 108.47 96.9999 107.56 97.2299 106.65C97.4799 105.69 97.7799 104.76 98.1399 103.86C98.4999 102.97 98.9699 102.17 99.5499 101.47C100.13 100.77 100.85 100.22 101.7 99.8099C102.55 99.3999 103.61 99.1899 104.86 99.1899C105.93 99.1899 106.77 99.3599 107.37 99.7099C107.97 100.06 108.38 100.55 108.62 101.18C108.85 101.81 108.92 102.58 108.84 103.48C108.75 104.38 108.57 105.39 108.29 106.5L108.08 107.33H100.76L100.47 108.48L100.46 108.51Z" fill="white"/>
<path d="M120.07 102.98L120.97 99.44C119.31 99.26 119.19 99.25 119.08 99.24C118.97 99.24 118.85 99.23 118.75 99.23C117.98 99.23 117.28 99.44 116.63 99.86C116.49 99.95 116.35 100.05 116.21 100.16C116.13 100.22 116.06 100.29 115.98 100.35C115.93 100.4 115.87 100.44 115.82 100.49C115.72 100.58 115.62 100.68 115.52 100.77C115.5 100.79 115.48 100.81 115.46 100.84C115.25 101.05 115.05 101.28 114.85 101.53H114.8L115.29 99.6H111.75L108.08 114.02H111.78L113.98 105.36C114.05 105.07 114.15 104.81 114.27 104.57C114.31 104.5 114.35 104.42 114.39 104.35C114.43 104.28 114.48 104.21 114.53 104.14C114.77 103.81 115.06 103.54 115.38 103.34C115.7 103.14 116.03 102.99 116.38 102.9C116.72 102.81 117.06 102.77 117.38 102.77C117.58 102.77 117.77 102.77 117.95 102.78C118.05 102.78 118.14 102.79 118.24 102.8C118.5 102.82 118.98 102.87 120.08 102.98" fill="white"/>
</g>
<defs>
<clipPath id="clip0_22_61281">
<rect width="140.54" height="114.31" fill="white" transform="translate(0.72998)"/>
</clipPath>
</defs>
</svg>
